<svg xmlns="http://www.w3.org/2000/svg" viewBox="0 0 800 560" role="img" aria-labelledby="title desc">
  <title id="title">Veloz Air Pro</title>
  <desc id="desc">Ilustracion estilizada del modelo Veloz Air Pro.</desc>
  <defs>
    <linearGradient id="bg" x1="0%" y1="0%" x2="100%" y2="100%">
      <stop offset="0%" stop-color="#fff4ea"/>
      <stop offset="100%" stop-color="#ffd7c7"/>
    </linearGradient>
  </defs>
  <rect width="800" height="560" rx="40" fill="url(#bg)"/>
  <circle cx="160" cy="110" r="90" fill="#ff6b35" opacity="0.18"/>
  <circle cx="650" cy="410" r="110" fill="#0fa3b1" opacity="0.16"/>
  <g transform="translate(70 140)">
    <path d="M16 214C58 142 126 112 219 118L343 126C377 128 408 144 430 170L523 275C544 299 574 313 606 313H655C679 313 700 329 706 352L716 387H54C25 387 1 364 1 335V313C1 276 6 248 16 214Z" fill="#fffdf8"/>
    <path d="M187 121L340 128C370 129 398 142 420 165L471 219L341 212C278 209 220 182 187 121Z" fill="#dbe3e8"/>
    <path d="M70 389C79 343 114 313 158 313H626C664 313 698 339 710 389" fill="none" stroke="#101828" stroke-width="18" stroke-linecap="round"/>
    <path d="M93 254L188 184L303 216" fill="none" stroke="#ff6b35" stroke-width="20" stroke-linecap="round"/>
    <path d="M287 166H431" stroke="#0fa3b1" stroke-width="14" stroke-linecap="round"/>
    <path d="M516 273L605 313" stroke="#ff8f6b" stroke-width="18" stroke-linecap="round"/>
    <circle cx="188" cy="396" r="46" fill="#0f172a"/>
    <circle cx="558" cy="396" r="46" fill="#0f172a"/>
    <circle cx="188" cy="396" r="17" fill="#fffdf8"/>
    <circle cx="558" cy="396" r="17" fill="#fffdf8"/>
  </g>
  <text x="58" y="74" fill="#17212b" font-family="Space Grotesk, Arial, sans-serif" font-size="34" font-weight="700">VELOZ AIR PRO</text>
</svg>
